<?xml version="1.0" encoding="UTF-8" ?>
<svg version="1.1" width="100" height="100" xmlns="http://www.w3.org/2000/svg" shape-rendering="crispEdges">
<rect x="54" y="82" width="1" height="1" fill="#8A6C0B" />
<rect x="55" y="82" width="1" height="1" fill="#8A6C0B" />
<rect x="56" y="82" width="1" height="1" fill="#8A6C0B" />
<rect x="57" y="82" width="1" height="1" fill="#8A6C0B" />
<rect x="58" y="82" width="1" height="1" fill="#8A6C0B" />
<rect x="59" y="82" width="1" height="1" fill="#8A6C0B" />
<rect x="60" y="82" width="1" height="1" fill="#8A6C0B" />
<rect x="61" y="82" width="1" height="1" fill="#8A6C0B" />
<rect x="62" y="82" width="1" height="1" fill="#8A6C0B" />
<rect x="49" y="83" width="1" height="1" fill="#8A6C0B" />
<rect x="50" y="83" width="1" height="1" fill="#8A6C0B" />
<rect x="51" y="83" width="1" height="1" fill="#8A6C0B" />
<rect x="52" y="83" width="1" height="1" fill="#8A6C0B" />
<rect x="53" y="83" width="1" height="1" fill="#8A6C0B" />
<rect x="54" y="83" width="1" height="1" fill="#8A6C0B" />
<rect x="55" y="83" width="1" height="1" fill="#8A6C0B" />
<rect x="56" y="83" width="1" height="1" fill="#8A6C0B" />
<rect x="57" y="83" width="1" height="1" fill="#8A6C0B" />
<rect x="58" y="83" width="1" height="1" fill="#8A6C0B" />
<rect x="59" y="83" width="1" height="1" fill="#8A6C0B" />
<rect x="60" y="83" width="1" height="1" fill="#8A6C0B" />
<rect x="61" y="83" width="1" height="1" fill="#8A6C0B" />
<rect x="62" y="83" width="1" height="1" fill="#8A6C0B" />
<rect x="63" y="83" width="1" height="1" fill="#8A6C0B" />
<rect x="64" y="83" width="1" height="1" fill="#8A6C0B" />
<rect x="65" y="83" width="1" height="1" fill="#8A6C0B" />
<rect x="66" y="83" width="1" height="1" fill="#8A6C0B" />
<rect x="46" y="84" width="1" height="1" fill="#8A6C0B" />
<rect x="47" y="84" width="1" height="1" fill="#8A6C0B" />
<rect x="48" y="84" width="1" height="1" fill="#8A6C0B" />
<rect x="49" y="84" width="1" height="1" fill="#8A6C0B" />
<rect x="50" y="84" width="1" height="1" fill="#8A6C0B" />
<rect x="51" y="84" width="1" height="1" fill="#8A6C0B" />
<rect x="52" y="84" width="1" height="1" fill="#8A6C0B" />
<rect x="53" y="84" width="1" height="1" fill="#8A6C0B" />
<rect x="54" y="84" width="1" height="1" fill="#8A6C0B" />
<rect x="55" y="84" width="1" height="1" fill="#8A6C0B" />
<rect x="56" y="84" width="1" height="1" fill="#8A6C0B" />
<rect x="57" y="84" width="1" height="1" fill="#8A6C0B" />
<rect x="58" y="84" width="1" height="1" fill="#8A6C0B" />
<rect x="59" y="84" width="1" height="1" fill="#8A6C0B" />
<rect x="60" y="84" width="1" height="1" fill="#8A6C0B" />
<rect x="61" y="84" width="1" height="1" fill="#8A6C0B" />
<rect x="62" y="84" width="1" height="1" fill="#8A6C0B" />
<rect x="63" y="84" width="1" height="1" fill="#8A6C0B" />
<rect x="64" y="84" width="1" height="1" fill="#8A6C0B" />
<rect x="65" y="84" width="1" height="1" fill="#8A6C0B" />
<rect x="66" y="84" width="1" height="1" fill="#8A6C0B" />
<rect x="67" y="84" width="1" height="1" fill="#8A6C0B" />
<rect x="68" y="84" width="1" height="1" fill="#8A6C0B" />
<rect x="44" y="85" width="1" height="1" fill="#8A6C0B" />
<rect x="45" y="85" width="1" height="1" fill="#8A6C0B" />
<rect x="46" y="85" width="1" height="1" fill="#8A6C0B" />
<rect x="47" y="85" width="1" height="1" fill="#8A6C0B" />
<rect x="48" y="85" width="1" height="1" fill="#8A6C0B" />
<rect x="49" y="85" width="1" height="1" fill="#8A6C0B" />
<rect x="50" y="85" width="1" height="1" fill="#8A6C0B" />
<rect x="51" y="85" width="1" height="1" fill="#8A6C0B" />
<rect x="52" y="85" width="1" height="1" fill="#8A6C0B" />
<rect x="53" y="85" width="1" height="1" fill="#8A6C0B" />
<rect x="54" y="85" width="1" height="1" fill="#8A6C0B" />
<rect x="55" y="85" width="1" height="1" fill="#8A6C0B" />
<rect x="56" y="85" width="1" height="1" fill="#8A6C0B" />
<rect x="57" y="85" width="1" height="1" fill="#8A6C0B" />
<rect x="58" y="85" width="1" height="1" fill="#8A6C0B" />
<rect x="59" y="85" width="1" height="1" fill="#8A6C0B" />
<rect x="60" y="85" width="1" height="1" fill="#8A6C0B" />
<rect x="61" y="85" width="1" height="1" fill="#8A6C0B" />
<rect x="62" y="85" width="1" height="1" fill="#8A6C0B" />
<rect x="63" y="85" width="1" height="1" fill="#8A6C0B" />
<rect x="64" y="85" width="1" height="1" fill="#8A6C0B" />
<rect x="65" y="85" width="1" height="1" fill="#8A6C0B" />
<rect x="66" y="85" width="1" height="1" fill="#8A6C0B" />
<rect x="67" y="85" width="1" height="1" fill="#8A6C0B" />
<rect x="68" y="85" width="1" height="1" fill="#8A6C0B" />
<rect x="69" y="85" width="1" height="1" fill="#8A6C0B" />
<rect x="70" y="85" width="1" height="1" fill="#8A6C0B" />
<rect x="71" y="85" width="1" height="1" fill="#8A6C0B" />
<rect x="72" y="85" width="1" height="1" fill="#8A6C0B" />
<rect x="42" y="86" width="1" height="1" fill="#8A6C0B" />
<rect x="43" y="86" width="1" height="1" fill="#8A6C0B" />
<rect x="44" y="86" width="1" height="1" fill="#8A6C0B" />
<rect x="45" y="86" width="1" height="1" fill="#8A6C0B" />
<rect x="46" y="86" width="1" height="1" fill="#8A6C0B" />
<rect x="47" y="86" width="1" height="1" fill="#8A6C0B" />
<rect x="48" y="86" width="1" height="1" fill="#8A6C0B" />
<rect x="49" y="86" width="1" height="1" fill="#8A6C0B" />
<rect x="50" y="86" width="1" height="1" fill="#8A6C0B" />
<rect x="51" y="86" width="1" height="1" fill="#8A6C0B" />
<rect x="52" y="86" width="1" height="1" fill="#8A6C0B" />
<rect x="53" y="86" width="1" height="1" fill="#8A6C0B" />
<rect x="54" y="86" width="1" height="1" fill="#8A6C0B" />
<rect x="55" y="86" width="1" height="1" fill="#8A6C0B" />
<rect x="56" y="86" width="1" height="1" fill="#8A6C0B" />
<rect x="57" y="86" width="1" height="1" fill="#8A6C0B" />
<rect x="58" y="86" width="1" height="1" fill="#8A6C0B" />
<rect x="59" y="86" width="1" height="1" fill="#8A6C0B" />
<rect x="60" y="86" width="1" height="1" fill="#8A6C0B" />
<rect x="61" y="86" width="1" height="1" fill="#8A6C0B" />
<rect x="62" y="86" width="1" height="1" fill="#8A6C0B" />
<rect x="63" y="86" width="1" height="1" fill="#8A6C0B" />
<rect x="64" y="86" width="1" height="1" fill="#8A6C0B" />
<rect x="65" y="86" width="1" height="1" fill="#8A6C0B" />
<rect x="66" y="86" width="1" height="1" fill="#8A6C0B" />
<rect x="67" y="86" width="1" height="1" fill="#8A6C0B" />
<rect x="68" y="86" width="1" height="1" fill="#8A6C0B" />
<rect x="69" y="86" width="1" height="1" fill="#8A6C0B" />
<rect x="70" y="86" width="1" height="1" fill="#8A6C0B" />
<rect x="71" y="86" width="1" height="1" fill="#8A6C0B" />
<rect x="72" y="86" width="1" height="1" fill="#8A6C0B" />
<rect x="73" y="86" width="1" height="1" fill="#8A6C0B" />
<rect x="74" y="86" width="1" height="1" fill="#8A6C0B" />
<rect x="41" y="87" width="1" height="1" fill="#8A6C0B" />
<rect x="42" y="87" width="1" height="1" fill="#8A6C0B" />
<rect x="43" y="87" width="1" height="1" fill="#8A6C0B" />
<rect x="44" y="87" width="1" height="1" fill="#8A6C0B" />
<rect x="45" y="87" width="1" height="1" fill="#8A6C0B" />
<rect x="46" y="87" width="1" height="1" fill="#8A6C0B" />
<rect x="47" y="87" width="1" height="1" fill="#8A6C0B" />
<rect x="48" y="87" width="1" height="1" fill="#8A6C0B" />
<rect x="49" y="87" width="1" height="1" fill="#8A6C0B" />
<rect x="50" y="87" width="1" height="1" fill="#8A6C0B" />
<rect x="51" y="87" width="1" height="1" fill="#8A6C0B" />
<rect x="52" y="87" width="1" height="1" fill="#8A6C0B" />
<rect x="53" y="87" width="1" height="1" fill="#8A6C0B" />
<rect x="54" y="87" width="1" height="1" fill="#8A6C0B" />
<rect x="55" y="87" width="1" height="1" fill="#8A6C0B" />
<rect x="56" y="87" width="1" height="1" fill="#8A6C0B" />
<rect x="57" y="87" width="1" height="1" fill="#8A6C0B" />
<rect x="58" y="87" width="1" height="1" fill="#8A6C0B" />
<rect x="59" y="87" width="1" height="1" fill="#8A6C0B" />
<rect x="60" y="87" width="1" height="1" fill="#8A6C0B" />
<rect x="61" y="87" width="1" height="1" fill="#8A6C0B" />
<rect x="62" y="87" width="1" height="1" fill="#8A6C0B" />
<rect x="63" y="87" width="1" height="1" fill="#8A6C0B" />
<rect x="64" y="87" width="1" height="1" fill="#8A6C0B" />
<rect x="65" y="87" width="1" height="1" fill="#8A6C0B" />
<rect x="66" y="87" width="1" height="1" fill="#8A6C0B" />
<rect x="67" y="87" width="1" height="1" fill="#8A6C0B" />
<rect x="68" y="87" width="1" height="1" fill="#8A6C0B" />
<rect x="69" y="87" width="1" height="1" fill="#8A6C0B" />
<rect x="70" y="87" width="1" height="1" fill="#8A6C0B" />
<rect x="71" y="87" width="1" height="1" fill="#8A6C0B" />
<rect x="72" y="87" width="1" height="1" fill="#8A6C0B" />
<rect x="73" y="87" width="1" height="1" fill="#8A6C0B" />
<rect x="74" y="87" width="1" height="1" fill="#8A6C0B" />
<rect x="75" y="87" width="1" height="1" fill="#8A6C0B" />
<rect x="40" y="88" width="1" height="1" fill="#8A6C0B" />
<rect x="41" y="88" width="1" height="1" fill="#8A6C0B" />
<rect x="42" y="88" width="1" height="1" fill="#8A6C0B" />
<rect x="43" y="88" width="1" height="1" fill="#8A6C0B" />
<rect x="44" y="88" width="1" height="1" fill="#8A6C0B" />
<rect x="45" y="88" width="1" height="1" fill="#8A6C0B" />
<rect x="46" y="88" width="1" height="1" fill="#8A6C0B" />
<rect x="47" y="88" width="1" height="1" fill="#8A6C0B" />
<rect x="48" y="88" width="1" height="1" fill="#8A6C0B" />
<rect x="49" y="88" width="1" height="1" fill="#8A6C0B" />
<rect x="50" y="88" width="1" height="1" fill="#8A6C0B" />
<rect x="51" y="88" width="1" height="1" fill="#8A6C0B" />
<rect x="52" y="88" width="1" height="1" fill="#8A6C0B" />
<rect x="53" y="88" width="1" height="1" fill="#8A6C0B" />
<rect x="54" y="88" width="1" height="1" fill="#8A6C0B" />
<rect x="55" y="88" width="1" height="1" fill="#8A6C0B" />
<rect x="56" y="88" width="1" height="1" fill="#8A6C0B" />
<rect x="57" y="88" width="1" height="1" fill="#8A6C0B" />
<rect x="58" y="88" width="1" height="1" fill="#8A6C0B" />
<rect x="59" y="88" width="1" height="1" fill="#8A6C0B" />
<rect x="60" y="88" width="1" height="1" fill="#8A6C0B" />
<rect x="61" y="88" width="1" height="1" fill="#8A6C0B" />
<rect x="62" y="88" width="1" height="1" fill="#8A6C0B" />
<rect x="63" y="88" width="1" height="1" fill="#8A6C0B" />
<rect x="64" y="88" width="1" height="1" fill="#8A6C0B" />
<rect x="65" y="88" width="1" height="1" fill="#8A6C0B" />
<rect x="66" y="88" width="1" height="1" fill="#8A6C0B" />
<rect x="67" y="88" width="1" height="1" fill="#8A6C0B" />
<rect x="68" y="88" width="1" height="1" fill="#8A6C0B" />
<rect x="69" y="88" width="1" height="1" fill="#8A6C0B" />
<rect x="70" y="88" width="1" height="1" fill="#8A6C0B" />
<rect x="71" y="88" width="1" height="1" fill="#8A6C0B" />
<rect x="72" y="88" width="1" height="1" fill="#8A6C0B" />
<rect x="73" y="88" width="1" height="1" fill="#8A6C0B" />
<rect x="74" y="88" width="1" height="1" fill="#8A6C0B" />
<rect x="75" y="88" width="1" height="1" fill="#8A6C0B" />
<rect x="76" y="88" width="1" height="1" fill="#8A6C0B" />
<rect x="39" y="89" width="1" height="1" fill="#8A6C0B" />
<rect x="40" y="89" width="1" height="1" fill="#8A6C0B" />
<rect x="41" y="89" width="1" height="1" fill="#8A6C0B" />
<rect x="42" y="89" width="1" height="1" fill="#8A6C0B" />
<rect x="43" y="89" width="1" height="1" fill="#8A6C0B" />
<rect x="44" y="89" width="1" height="1" fill="#8A6C0B" />
<rect x="45" y="89" width="1" height="1" fill="#8A6C0B" />
<rect x="46" y="89" width="1" height="1" fill="#8A6C0B" />
<rect x="47" y="89" width="1" height="1" fill="#8A6C0B" />
<rect x="48" y="89" width="1" height="1" fill="#8A6C0B" />
<rect x="49" y="89" width="1" height="1" fill="#8A6C0B" />
<rect x="50" y="89" width="1" height="1" fill="#8A6C0B" />
<rect x="51" y="89" width="1" height="1" fill="#8A6C0B" />
<rect x="52" y="89" width="1" height="1" fill="#8A6C0B" />
<rect x="53" y="89" width="1" height="1" fill="#8A6C0B" />
<rect x="54" y="89" width="1" height="1" fill="#8A6C0B" />
<rect x="55" y="89" width="1" height="1" fill="#8A6C0B" />
<rect x="56" y="89" width="1" height="1" fill="#8A6C0B" />
<rect x="57" y="89" width="1" height="1" fill="#8A6C0B" />
<rect x="58" y="89" width="1" height="1" fill="#8A6C0B" />
<rect x="59" y="89" width="1" height="1" fill="#8A6C0B" />
<rect x="60" y="89" width="1" height="1" fill="#8A6C0B" />
<rect x="61" y="89" width="1" height="1" fill="#8A6C0B" />
<rect x="62" y="89" width="1" height="1" fill="#8A6C0B" />
<rect x="63" y="89" width="1" height="1" fill="#8A6C0B" />
<rect x="64" y="89" width="1" height="1" fill="#8A6C0B" />
<rect x="65" y="89" width="1" height="1" fill="#8A6C0B" />
<rect x="66" y="89" width="1" height="1" fill="#8A6C0B" />
<rect x="67" y="89" width="1" height="1" fill="#8A6C0B" />
<rect x="68" y="89" width="1" height="1" fill="#8A6C0B" />
<rect x="69" y="89" width="1" height="1" fill="#8A6C0B" />
<rect x="70" y="89" width="1" height="1" fill="#8A6C0B" />
<rect x="71" y="89" width="1" height="1" fill="#8A6C0B" />
<rect x="72" y="89" width="1" height="1" fill="#8A6C0B" />
<rect x="73" y="89" width="1" height="1" fill="#8A6C0B" />
<rect x="74" y="89" width="1" height="1" fill="#8A6C0B" />
<rect x="75" y="89" width="1" height="1" fill="#8A6C0B" />
<rect x="76" y="89" width="1" height="1" fill="#8A6C0B" />
<rect x="77" y="89" width="1" height="1" fill="#8A6C0B" />
<rect x="38" y="90" width="1" height="1" fill="#8A6C0B" />
<rect x="39" y="90" width="1" height="1" fill="#8A6C0B" />
<rect x="40" y="90" width="1" height="1" fill="#8A6C0B" />
<rect x="41" y="90" width="1" height="1" fill="#8A6C0B" />
<rect x="42" y="90" width="1" height="1" fill="#8A6C0B" />
<rect x="43" y="90" width="1" height="1" fill="#8A6C0B" />
<rect x="44" y="90" width="1" height="1" fill="#8A6C0B" />
<rect x="45" y="90" width="1" height="1" fill="#8A6C0B" />
<rect x="46" y="90" width="1" height="1" fill="#8A6C0B" />
<rect x="47" y="90" width="1" height="1" fill="#8A6C0B" />
<rect x="48" y="90" width="1" height="1" fill="#8A6C0B" />
<rect x="49" y="90" width="1" height="1" fill="#8A6C0B" />
<rect x="50" y="90" width="1" height="1" fill="#8A6C0B" />
<rect x="51" y="90" width="1" height="1" fill="#8A6C0B" />
<rect x="52" y="90" width="1" height="1" fill="#8A6C0B" />
<rect x="53" y="90" width="1" height="1" fill="#8A6C0B" />
<rect x="54" y="90" width="1" height="1" fill="#8A6C0B" />
<rect x="55" y="90" width="1" height="1" fill="#8A6C0B" />
<rect x="56" y="90" width="1" height="1" fill="#8A6C0B" />
<rect x="57" y="90" width="1" height="1" fill="#8A6C0B" />
<rect x="58" y="90" width="1" height="1" fill="#8A6C0B" />
<rect x="59" y="90" width="1" height="1" fill="#8A6C0B" />
<rect x="60" y="90" width="1" height="1" fill="#8A6C0B" />
<rect x="61" y="90" width="1" height="1" fill="#8A6C0B" />
<rect x="62" y="90" width="1" height="1" fill="#8A6C0B" />
<rect x="63" y="90" width="1" height="1" fill="#8A6C0B" />
<rect x="64" y="90" width="1" height="1" fill="#8A6C0B" />
<rect x="65" y="90" width="1" height="1" fill="#8A6C0B" />
<rect x="66" y="90" width="1" height="1" fill="#8A6C0B" />
<rect x="67" y="90" width="1" height="1" fill="#8A6C0B" />
<rect x="68" y="90" width="1" height="1" fill="#8A6C0B" />
<rect x="69" y="90" width="1" height="1" fill="#8A6C0B" />
<rect x="70" y="90" width="1" height="1" fill="#8A6C0B" />
<rect x="71" y="90" width="1" height="1" fill="#8A6C0B" />
<rect x="72" y="90" width="1" height="1" fill="#8A6C0B" />
<rect x="73" y="90" width="1" height="1" fill="#8A6C0B" />
<rect x="74" y="90" width="1" height="1" fill="#8A6C0B" />
<rect x="75" y="90" width="1" height="1" fill="#8A6C0B" />
<rect x="76" y="90" width="1" height="1" fill="#8A6C0B" />
<rect x="77" y="90" width="1" height="1" fill="#8A6C0B" />
<rect x="38" y="91" width="1" height="1" fill="#8A6C0B" />
<rect x="39" y="91" width="1" height="1" fill="#8A6C0B" />
<rect x="40" y="91" width="1" height="1" fill="#8A6C0B" />
<rect x="41" y="91" width="1" height="1" fill="#8A6C0B" />
<rect x="42" y="91" width="1" height="1" fill="#8A6C0B" />
<rect x="43" y="91" width="1" height="1" fill="#8A6C0B" />
<rect x="44" y="91" width="1" height="1" fill="#8A6C0B" />
<rect x="45" y="91" width="1" height="1" fill="#8A6C0B" />
<rect x="46" y="91" width="1" height="1" fill="#8A6C0B" />
<rect x="47" y="91" width="1" height="1" fill="#8A6C0B" />
<rect x="48" y="91" width="1" height="1" fill="#8A6C0B" />
<rect x="49" y="91" width="1" height="1" fill="#8A6C0B" />
<rect x="50" y="91" width="1" height="1" fill="#8A6C0B" />
<rect x="51" y="91" width="1" height="1" fill="#8A6C0B" />
<rect x="52" y="91" width="1" height="1" fill="#8A6C0B" />
<rect x="53" y="91" width="1" height="1" fill="#8A6C0B" />
<rect x="54" y="91" width="1" height="1" fill="#8A6C0B" />
<rect x="55" y="91" width="1" height="1" fill="#8A6C0B" />
<rect x="56" y="91" width="1" height="1" fill="#8A6C0B" />
<rect x="57" y="91" width="1" height="1" fill="#8A6C0B" />
<rect x="58" y="91" width="1" height="1" fill="#8A6C0B" />
<rect x="59" y="91" width="1" height="1" fill="#8A6C0B" />
<rect x="60" y="91" width="1" height="1" fill="#8A6C0B" />
<rect x="61" y="91" width="1" height="1" fill="#8A6C0B" />
<rect x="62" y="91" width="1" height="1" fill="#8A6C0B" />
<rect x="63" y="91" width="1" height="1" fill="#8A6C0B" />
<rect x="64" y="91" width="1" height="1" fill="#8A6C0B" />
<rect x="65" y="91" width="1" height="1" fill="#8A6C0B" />
<rect x="66" y="91" width="1" height="1" fill="#8A6C0B" />
<rect x="67" y="91" width="1" height="1" fill="#8A6C0B" />
<rect x="68" y="91" width="1" height="1" fill="#8A6C0B" />
<rect x="69" y="91" width="1" height="1" fill="#8A6C0B" />
<rect x="70" y="91" width="1" height="1" fill="#8A6C0B" />
<rect x="71" y="91" width="1" height="1" fill="#8A6C0B" />
<rect x="72" y="91" width="1" height="1" fill="#8A6C0B" />
<rect x="73" y="91" width="1" height="1" fill="#8A6C0B" />
<rect x="74" y="91" width="1" height="1" fill="#8A6C0B" />
<rect x="75" y="91" width="1" height="1" fill="#8A6C0B" />
<rect x="76" y="91" width="1" height="1" fill="#8A6C0B" />
<rect x="77" y="91" width="1" height="1" fill="#8A6C0B" />
<rect x="38" y="92" width="1" height="1" fill="#8A6C0B" />
<rect x="39" y="92" width="1" height="1" fill="#8A6C0B" />
<rect x="40" y="92" width="1" height="1" fill="#8A6C0B" />
<rect x="41" y="92" width="1" height="1" fill="#8A6C0B" />
<rect x="42" y="92" width="1" height="1" fill="#8A6C0B" />
<rect x="43" y="92" width="1" height="1" fill="#8A6C0B" />
<rect x="44" y="92" width="1" height="1" fill="#8A6C0B" />
<rect x="45" y="92" width="1" height="1" fill="#8A6C0B" />
<rect x="46" y="92" width="1" height="1" fill="#8A6C0B" />
<rect x="47" y="92" width="1" height="1" fill="#8A6C0B" />
<rect x="48" y="92" width="1" height="1" fill="#8A6C0B" />
<rect x="49" y="92" width="1" height="1" fill="#8A6C0B" />
<rect x="50" y="92" width="1" height="1" fill="#8A6C0B" />
<rect x="51" y="92" width="1" height="1" fill="#8A6C0B" />
<rect x="52" y="92" width="1" height="1" fill="#8A6C0B" />
<rect x="53" y="92" width="1" height="1" fill="#8A6C0B" />
<rect x="54" y="92" width="1" height="1" fill="#8A6C0B" />
<rect x="55" y="92" width="1" height="1" fill="#8A6C0B" />
<rect x="56" y="92" width="1" height="1" fill="#8A6C0B" />
<rect x="57" y="92" width="1" height="1" fill="#8A6C0B" />
<rect x="58" y="92" width="1" height="1" fill="#8A6C0B" />
<rect x="59" y="92" width="1" height="1" fill="#8A6C0B" />
<rect x="60" y="92" width="1" height="1" fill="#8A6C0B" />
<rect x="61" y="92" width="1" height="1" fill="#8A6C0B" />
<rect x="62" y="92" width="1" height="1" fill="#8A6C0B" />
<rect x="63" y="92" width="1" height="1" fill="#8A6C0B" />
<rect x="64" y="92" width="1" height="1" fill="#8A6C0B" />
<rect x="65" y="92" width="1" height="1" fill="#8A6C0B" />
<rect x="66" y="92" width="1" height="1" fill="#8A6C0B" />
<rect x="67" y="92" width="1" height="1" fill="#8A6C0B" />
<rect x="68" y="92" width="1" height="1" fill="#8A6C0B" />
<rect x="69" y="92" width="1" height="1" fill="#8A6C0B" />
<rect x="70" y="92" width="1" height="1" fill="#8A6C0B" />
<rect x="71" y="92" width="1" height="1" fill="#8A6C0B" />
<rect x="72" y="92" width="1" height="1" fill="#8A6C0B" />
<rect x="73" y="92" width="1" height="1" fill="#8A6C0B" />
<rect x="74" y="92" width="1" height="1" fill="#8A6C0B" />
<rect x="75" y="92" width="1" height="1" fill="#8A6C0B" />
<rect x="76" y="92" width="1" height="1" fill="#8A6C0B" />
<rect x="39" y="93" width="1" height="1" fill="#8A6C0B" />
<rect x="40" y="93" width="1" height="1" fill="#8A6C0B" />
<rect x="41" y="93" width="1" height="1" fill="#8A6C0B" />
<rect x="42" y="93" width="1" height="1" fill="#8A6C0B" />
<rect x="43" y="93" width="1" height="1" fill="#8A6C0B" />
<rect x="44" y="93" width="1" height="1" fill="#8A6C0B" />
<rect x="45" y="93" width="1" height="1" fill="#8A6C0B" />
<rect x="46" y="93" width="1" height="1" fill="#8A6C0B" />
<rect x="47" y="93" width="1" height="1" fill="#8A6C0B" />
<rect x="48" y="93" width="1" height="1" fill="#8A6C0B" />
<rect x="49" y="93" width="1" height="1" fill="#8A6C0B" />
<rect x="50" y="93" width="1" height="1" fill="#8A6C0B" />
<rect x="51" y="93" width="1" height="1" fill="#8A6C0B" />
<rect x="52" y="93" width="1" height="1" fill="#8A6C0B" />
<rect x="53" y="93" width="1" height="1" fill="#8A6C0B" />
<rect x="54" y="93" width="1" height="1" fill="#8A6C0B" />
<rect x="55" y="93" width="1" height="1" fill="#8A6C0B" />
<rect x="56" y="93" width="1" height="1" fill="#8A6C0B" />
<rect x="57" y="93" width="1" height="1" fill="#8A6C0B" />
<rect x="58" y="93" width="1" height="1" fill="#8A6C0B" />
<rect x="59" y="93" width="1" height="1" fill="#8A6C0B" />
<rect x="60" y="93" width="1" height="1" fill="#8A6C0B" />
<rect x="61" y="93" width="1" height="1" fill="#8A6C0B" />
<rect x="62" y="93" width="1" height="1" fill="#8A6C0B" />
<rect x="63" y="93" width="1" height="1" fill="#8A6C0B" />
<rect x="64" y="93" width="1" height="1" fill="#8A6C0B" />
<rect x="65" y="93" width="1" height="1" fill="#8A6C0B" />
<rect x="66" y="93" width="1" height="1" fill="#8A6C0B" />
<rect x="67" y="93" width="1" height="1" fill="#8A6C0B" />
<rect x="68" y="93" width="1" height="1" fill="#8A6C0B" />
<rect x="69" y="93" width="1" height="1" fill="#8A6C0B" />
<rect x="70" y="93" width="1" height="1" fill="#8A6C0B" />
<rect x="71" y="93" width="1" height="1" fill="#8A6C0B" />
<rect x="72" y="93" width="1" height="1" fill="#8A6C0B" />
<rect x="73" y="93" width="1" height="1" fill="#8A6C0B" />
<rect x="74" y="93" width="1" height="1" fill="#8A6C0B" />
<rect x="75" y="93" width="1" height="1" fill="#8A6C0B" />
<rect x="76" y="93" width="1" height="1" fill="#8A6C0B" />
<rect x="41" y="94" width="1" height="1" fill="#8A6C0B" />
<rect x="42" y="94" width="1" height="1" fill="#8A6C0B" />
<rect x="43" y="94" width="1" height="1" fill="#8A6C0B" />
<rect x="44" y="94" width="1" height="1" fill="#8A6C0B" />
<rect x="45" y="94" width="1" height="1" fill="#8A6C0B" />
<rect x="46" y="94" width="1" height="1" fill="#8A6C0B" />
<rect x="47" y="94" width="1" height="1" fill="#8A6C0B" />
<rect x="48" y="94" width="1" height="1" fill="#8A6C0B" />
<rect x="49" y="94" width="1" height="1" fill="#8A6C0B" />
<rect x="50" y="94" width="1" height="1" fill="#8A6C0B" />
<rect x="51" y="94" width="1" height="1" fill="#8A6C0B" />
<rect x="52" y="94" width="1" height="1" fill="#8A6C0B" />
<rect x="53" y="94" width="1" height="1" fill="#8A6C0B" />
<rect x="54" y="94" width="1" height="1" fill="#8A6C0B" />
<rect x="55" y="94" width="1" height="1" fill="#8A6C0B" />
<rect x="56" y="94" width="1" height="1" fill="#8A6C0B" />
<rect x="57" y="94" width="1" height="1" fill="#8A6C0B" />
<rect x="58" y="94" width="1" height="1" fill="#8A6C0B" />
<rect x="59" y="94" width="1" height="1" fill="#8A6C0B" />
<rect x="60" y="94" width="1" height="1" fill="#8A6C0B" />
<rect x="61" y="94" width="1" height="1" fill="#8A6C0B" />
<rect x="62" y="94" width="1" height="1" fill="#8A6C0B" />
<rect x="63" y="94" width="1" height="1" fill="#8A6C0B" />
<rect x="64" y="94" width="1" height="1" fill="#8A6C0B" />
<rect x="65" y="94" width="1" height="1" fill="#8A6C0B" />
<rect x="66" y="94" width="1" height="1" fill="#8A6C0B" />
<rect x="67" y="94" width="1" height="1" fill="#8A6C0B" />
<rect x="68" y="94" width="1" height="1" fill="#8A6C0B" />
<rect x="69" y="94" width="1" height="1" fill="#8A6C0B" />
<rect x="70" y="94" width="1" height="1" fill="#8A6C0B" />
<rect x="71" y="94" width="1" height="1" fill="#8A6C0B" />
<rect x="72" y="94" width="1" height="1" fill="#8A6C0B" />
<rect x="73" y="94" width="1" height="1" fill="#8A6C0B" />
<rect x="74" y="94" width="1" height="1" fill="#8A6C0B" />
<rect x="75" y="94" width="1" height="1" fill="#8A6C0B" />
<rect x="43" y="95" width="1" height="1" fill="#8A6C0B" />
<rect x="44" y="95" width="1" height="1" fill="#8A6C0B" />
<rect x="45" y="95" width="1" height="1" fill="#8A6C0B" />
<rect x="46" y="95" width="1" height="1" fill="#8A6C0B" />
<rect x="47" y="95" width="1" height="1" fill="#8A6C0B" />
<rect x="48" y="95" width="1" height="1" fill="#8A6C0B" />
<rect x="49" y="95" width="1" height="1" fill="#8A6C0B" />
<rect x="50" y="95" width="1" height="1" fill="#8A6C0B" />
<rect x="51" y="95" width="1" height="1" fill="#8A6C0B" />
<rect x="52" y="95" width="1" height="1" fill="#8A6C0B" />
<rect x="53" y="95" width="1" height="1" fill="#8A6C0B" />
<rect x="54" y="95" width="1" height="1" fill="#8A6C0B" />
<rect x="55" y="95" width="1" height="1" fill="#8A6C0B" />
<rect x="56" y="95" width="1" height="1" fill="#8A6C0B" />
<rect x="57" y="95" width="1" height="1" fill="#8A6C0B" />
<rect x="58" y="95" width="1" height="1" fill="#8A6C0B" />
<rect x="59" y="95" width="1" height="1" fill="#8A6C0B" />
<rect x="60" y="95" width="1" height="1" fill="#8A6C0B" />
<rect x="61" y="95" width="1" height="1" fill="#8A6C0B" />
<rect x="62" y="95" width="1" height="1" fill="#8A6C0B" />
<rect x="63" y="95" width="1" height="1" fill="#8A6C0B" />
<rect x="64" y="95" width="1" height="1" fill="#8A6C0B" />
<rect x="65" y="95" width="1" height="1" fill="#8A6C0B" />
<rect x="66" y="95" width="1" height="1" fill="#8A6C0B" />
<rect x="67" y="95" width="1" height="1" fill="#8A6C0B" />
<rect x="68" y="95" width="1" height="1" fill="#8A6C0B" />
<rect x="69" y="95" width="1" height="1" fill="#8A6C0B" />
<rect x="70" y="95" width="1" height="1" fill="#8A6C0B" />
<rect x="71" y="95" width="1" height="1" fill="#8A6C0B" />
<rect x="72" y="95" width="1" height="1" fill="#8A6C0B" />
<rect x="73" y="95" width="1" height="1" fill="#8A6C0B" />
<rect x="45" y="96" width="1" height="1" fill="#8A6C0B" />
<rect x="46" y="96" width="1" height="1" fill="#8A6C0B" />
<rect x="47" y="96" width="1" height="1" fill="#8A6C0B" />
<rect x="48" y="96" width="1" height="1" fill="#8A6C0B" />
<rect x="49" y="96" width="1" height="1" fill="#8A6C0B" />
<rect x="50" y="96" width="1" height="1" fill="#8A6C0B" />
<rect x="51" y="96" width="1" height="1" fill="#8A6C0B" />
<rect x="52" y="96" width="1" height="1" fill="#8A6C0B" />
<rect x="53" y="96" width="1" height="1" fill="#8A6C0B" />
<rect x="54" y="96" width="1" height="1" fill="#8A6C0B" />
<rect x="55" y="96" width="1" height="1" fill="#8A6C0B" />
<rect x="56" y="96" width="1" height="1" fill="#8A6C0B" />
<rect x="57" y="96" width="1" height="1" fill="#8A6C0B" />
<rect x="58" y="96" width="1" height="1" fill="#8A6C0B" />
<rect x="59" y="96" width="1" height="1" fill="#8A6C0B" />
<rect x="60" y="96" width="1" height="1" fill="#8A6C0B" />
<rect x="61" y="96" width="1" height="1" fill="#8A6C0B" />
<rect x="62" y="96" width="1" height="1" fill="#8A6C0B" />
<rect x="63" y="96" width="1" height="1" fill="#8A6C0B" />
<rect x="64" y="96" width="1" height="1" fill="#8A6C0B" />
<rect x="65" y="96" width="1" height="1" fill="#8A6C0B" />
<rect x="66" y="96" width="1" height="1" fill="#8A6C0B" />
<rect x="67" y="96" width="1" height="1" fill="#8A6C0B" />
<rect x="68" y="96" width="1" height="1" fill="#8A6C0B" />
<rect x="69" y="96" width="1" height="1" fill="#8A6C0B" />
<rect x="70" y="96" width="1" height="1" fill="#8A6C0B" />
<rect x="71" y="96" width="1" height="1" fill="#8A6C0B" />
<rect x="72" y="96" width="1" height="1" fill="#8A6C0B" />
<rect x="47" y="97" width="1" height="1" fill="#8A6C0B" />
<rect x="48" y="97" width="1" height="1" fill="#8A6C0B" />
<rect x="49" y="97" width="1" height="1" fill="#8A6C0B" />
<rect x="50" y="97" width="1" height="1" fill="#8A6C0B" />
<rect x="51" y="97" width="1" height="1" fill="#8A6C0B" />
<rect x="52" y="97" width="1" height="1" fill="#8A6C0B" />
<rect x="53" y="97" width="1" height="1" fill="#8A6C0B" />
<rect x="54" y="97" width="1" height="1" fill="#8A6C0B" />
<rect x="55" y="97" width="1" height="1" fill="#8A6C0B" />
<rect x="56" y="97" width="1" height="1" fill="#8A6C0B" />
<rect x="57" y="97" width="1" height="1" fill="#8A6C0B" />
<rect x="58" y="97" width="1" height="1" fill="#8A6C0B" />
<rect x="59" y="97" width="1" height="1" fill="#8A6C0B" />
<rect x="60" y="97" width="1" height="1" fill="#8A6C0B" />
<rect x="61" y="97" width="1" height="1" fill="#8A6C0B" />
<rect x="62" y="97" width="1" height="1" fill="#8A6C0B" />
<rect x="63" y="97" width="1" height="1" fill="#8A6C0B" />
<rect x="64" y="97" width="1" height="1" fill="#8A6C0B" />
<rect x="65" y="97" width="1" height="1" fill="#8A6C0B" />
<rect x="66" y="97" width="1" height="1" fill="#8A6C0B" />
<rect x="67" y="97" width="1" height="1" fill="#8A6C0B" />
<rect x="68" y="97" width="1" height="1" fill="#8A6C0B" />
<rect x="69" y="97" width="1" height="1" fill="#8A6C0B" />
<rect x="49" y="98" width="1" height="1" fill="#8A6C0B" />
<rect x="50" y="98" width="1" height="1" fill="#8A6C0B" />
<rect x="51" y="98" width="1" height="1" fill="#8A6C0B" />
<rect x="52" y="98" width="1" height="1" fill="#8A6C0B" />
<rect x="53" y="98" width="1" height="1" fill="#8A6C0B" />
<rect x="54" y="98" width="1" height="1" fill="#8A6C0B" />
<rect x="55" y="98" width="1" height="1" fill="#8A6C0B" />
<rect x="56" y="98" width="1" height="1" fill="#8A6C0B" />
<rect x="57" y="98" width="1" height="1" fill="#8A6C0B" />
<rect x="58" y="98" width="1" height="1" fill="#8A6C0B" />
<rect x="59" y="98" width="1" height="1" fill="#8A6C0B" />
<rect x="60" y="98" width="1" height="1" fill="#8A6C0B" />
<rect x="61" y="98" width="1" height="1" fill="#8A6C0B" />
<rect x="62" y="98" width="1" height="1" fill="#8A6C0B" />
<rect x="63" y="98" width="1" height="1" fill="#8A6C0B" />
<rect x="64" y="98" width="1" height="1" fill="#8A6C0B" />
<rect x="65" y="98" width="1" height="1" fill="#8A6C0B" />
<rect x="66" y="98" width="1" height="1" fill="#8A6C0B" />
<rect x="53" y="99" width="1" height="1" fill="#8A6C0B" />
<rect x="54" y="99" width="1" height="1" fill="#8A6C0B" />
<rect x="55" y="99" width="1" height="1" fill="#8A6C0B" />
<rect x="56" y="99" width="1" height="1" fill="#8A6C0B" />
<rect x="57" y="99" width="1" height="1" fill="#8A6C0B" />
<rect x="58" y="99" width="1" height="1" fill="#8A6C0B" />
<rect x="59" y="99" width="1" height="1" fill="#8A6C0B" />
<rect x="60" y="99" width="1" height="1" fill="#8A6C0B" />
<rect x="61" y="99" width="1" height="1" fill="#8A6C0B" />
<rect x="62" y="99" width="1" height="1" fill="#8A6C0B" />
<rect x="63" y="99" width="1" height="1" fill="#8A6C0B" />
<rect x="64" y="99" width="1" height="1" fill="#8A6C0B" />
</svg>