<svg xmlns="http://www.w3.org/2000/svg" shape-rendering="crispEdges" viewBox="0 -0.5 100 100"><path stroke="#8a6c0b" d="M42 12h7m-8 1h9m-10 1h11m-12 1h13m-13 1h13m-14 1h21m-22 1h24m-25 1h17m1 0h8m-26 1h17m1 0h9m-27 1h16m2 0h10m-32 1h20m2 0h11m-34 1h20m2 0h12m-35 1h20m3 0h12m1 0h3m-40 1h12m1 0h8m3 0h11m2 0h4m-42 1h13m4 0h3m4 0h12m1 0h6m-44 1h17m8 0h12m1 0h7m-46 1h37m2 0h8m-47 1h36m3 0h8m-48 1h36m3 0h9m-48 1h6m1 0h28m4 0h9m-48 1h6m2 0h25m4 0h11m-48 1h7m9 0h12m7 0h13m-48 1h8m6 0h34m-48 1h48m-48 1h47m-46 1h17m1 0h28m-46 1h16m2 0h28m-49 1h9m3 0h6m3 0h14m2 0h10m-48 1h12m9 0h15m1 0h11m-49 1h17m3 0h14m4 0h9m-48 1h33m4 0h9m-47 1h31m6 0h8m-45 1h3m1 0h41m-45 1h3m2 0h7m1 0h31m-44 1h4m2 0h4m3 0h30m-43 1h5m7 0h29m-41 1h6m4 0h5m6 0h16m-36 1h13m8 0h14m-35 1h12m10 0h11m-29 1h7m13 0h8m-26 1h4m17 0h3"/><path stroke="#5d400e" d="M53 19h1m-1 1h1m-2 1h2m-2 1h2m-3 1h2m-3 1h3m12 0h1m-25 1h1m8 0h3m11 0h2m-25 1h4m3 0h4m12 0h1m-21 1h8m12 0h1m-2 1h2m-3 1h3m-4 1h3m-33 1h1m28 0h4m-33 1h2m25 0h4m-30 1h9m12 0h7m-27 1h6m34 1h2m-3 1h4m-33 1h1m28 0h5m-35 1h2m28 0h6m-46 1h3m6 0h3m14 0h2m10 0h9m-45 1h9m15 0h1m11 0h9m-41 1h3m14 0h4m9 0h11m-26 1h4m9 0h13m-29 1h6m8 0h14m-56 1h1m41 0h13m-55 1h2m7 0h1m31 0h13m-53 1h2m4 0h3m30 0h12m-50 1h7m29 0h12m-47 1h4m5 0h6m16 0h13m-36 1h8m14 0h13m-36 1h10m11 0h14m-46 1h3m7 0h13m8 0h14m-44 1h4m4 0h17m3 0h15m-42 1h11m6 0h17m-33 1h9m8 0h15m-30 1h6m10 0h11"/><path stroke="#4c1517" d="M58 53h3m-4 1h4m-5 1h4m-15 1h4m7 0h3m-13 1h3m6 0h3m-12 1h4m4 0h4m-11 1h3m4 0h3m-10 1h4m2 0h3m-8 1h3m1 0h4m-8 1h7m-6 1h5m-5 1h5m-4 1h4m-4 1h3m-3 1h3m-3 1h3m-3 1h3m-3 1h3m-3 1h3m-3 1h3m-3 1h3m-3 1h3m-3 1h3m-3 1h3m-3 1h3m-3 1h3m-3 1h3m-3 1h3m-3 1h3m-3 1h3"/></svg>