<svg xmlns="http://www.w3.org/2000/svg" shape-rendering="crispEdges" viewBox="0 -0.5 100 100"><path stroke="#8a6c0b" d="M44 3h4m-5 1h6m-7 1h8M40 6h9M39 7h10M38 8h11M38 9h10m-10 1h9m2 0h2m-13 1h8m2 0h4m-14 1h15m-15 1h15m-16 1h16m-16 1h2m1 0h13m-17 1h3m2 0h8m1 0h3m-17 1h4m3 0h5m2 0h2m-16 1h5m8 0h2m-15 1h7m5 0h5m-16 1h18m-18 1h19m-18 1h19m-19 1h19m-18 1h17m-17 1h16m-17 1h5m2 0h9m-18 1h8m-8 1h10m7 0h2m-20 1h22m-23 1h24m-25 1h26m-26 1h27m-27 1h27m-26 1h8m2 0h16m-25 1h7m2 0h16m-24 1h5m2 0h17m-18 1h18m-25 1h1m5 0h15m2 0h4m-27 1h11m2 0h7m2 0h5m-28 1h12m11 0h5m-28 1h14m8 0h6m-28 1h29m-30 1h31m-32 1h5m1 0h26m-33 1h6m2 0h9m1 0h14m-32 1h7m2 0h7m2 0h13m2 0h1m-35 1h8m4 0h3m3 0h5m1 0h8m1 0h2m-35 1h9m9 0h5m2 0h6m2 0h2m-35 1h11m5 0h8m8 0h2m-34 1h26m5 0h3m-34 1h34m-34 1h34m-33 1h12m1 0h10m2 0h7m-31 1h10m4 0h5m7 0h4m-29 1h9m-6 1h5"/><path stroke="#5d400e" d="M49 6h1m-1 1h1m-1 1h1m-2 1h2m-3 1h2m-3 1h2m-9 4h1m-1 1h2m8 0h1m-10 1h3m5 0h2m-9 1h8m-6 1h5m8 5h1m-2 1h2m-14 1h2m9 0h2m-12 1h11m-9 1h7m-20 6h1m8 0h2m-11 1h2m7 0h2m-11 1h3m5 0h2m-9 1h8m-6 1h5m15 0h2m-12 1h2m7 0h2m-11 1h11m-9 1h8m-19 3h1m-1 1h2m9 0h1m14 0h1m-26 1h2m7 0h2m13 0h2m-26 1h4m3 0h3m5 0h1m8 0h1m-24 1h9m5 0h2m6 0h2m-22 1h5m8 0h8m2 0h1m-9 1h5m3 0h2m-2 1h3m-3 1h3m-37 1h1m12 0h1m10 0h2m7 0h4m-37 1h2m10 0h4m5 0h7m4 0h5m-37 1h3m9 0h25m-36 1h5m5 0h25m-34 1h33m-32 1h30m-28 1h19m-17 1h16m-14 1h12m-9 1h6"/><path stroke="#4c1517" d="M48 62h2m-3 1h3m-3 1h3m-3 1h3m-3 1h3m-3 1h3m-3 1h3m-3 1h3m-3 1h3m-3 1h3m-3 1h3m-3 1h4m-3 1h3m-3 1h3m-3 1h4m-3 1h3m-3 1h3m-3 1h3m-3 1h3m-3 1h4m-3 1h3m-3 1h3m-3 1h3m-3 1h3m-3 1h3m-3 1h3m-3 1h3m-3 1h3m-3 1h3m-3 1h3"/></svg>