<?xml version="1.0" encoding="UTF-8" ?>
<svg version="1.1" width="100" height="100" xmlns="http://www.w3.org/2000/svg" shape-rendering="crispEdges">
<rect x="33" y="78" width="1" height="1" fill="#8A6C0B" />
<rect x="34" y="78" width="1" height="1" fill="#8A6C0B" />
<rect x="35" y="78" width="1" height="1" fill="#8A6C0B" />
<rect x="36" y="78" width="1" height="1" fill="#8A6C0B" />
<rect x="37" y="78" width="1" height="1" fill="#8A6C0B" />
<rect x="38" y="78" width="1" height="1" fill="#8A6C0B" />
<rect x="39" y="78" width="1" height="1" fill="#8A6C0B" />
<rect x="32" y="79" width="1" height="1" fill="#8A6C0B" />
<rect x="33" y="79" width="1" height="1" fill="#8A6C0B" />
<rect x="34" y="79" width="1" height="1" fill="#8A6C0B" />
<rect x="35" y="79" width="1" height="1" fill="#8A6C0B" />
<rect x="36" y="79" width="1" height="1" fill="#8A6C0B" />
<rect x="37" y="79" width="1" height="1" fill="#8A6C0B" />
<rect x="38" y="79" width="1" height="1" fill="#8A6C0B" />
<rect x="39" y="79" width="1" height="1" fill="#8A6C0B" />
<rect x="40" y="79" width="1" height="1" fill="#8A6C0B" />
<rect x="41" y="79" width="1" height="1" fill="#8A6C0B" />
<rect x="42" y="79" width="1" height="1" fill="#8A6C0B" />
<rect x="43" y="79" width="1" height="1" fill="#8A6C0B" />
<rect x="44" y="79" width="1" height="1" fill="#8A6C0B" />
<rect x="45" y="79" width="1" height="1" fill="#8A6C0B" />
<rect x="27" y="80" width="1" height="1" fill="#8A6C0B" />
<rect x="28" y="80" width="1" height="1" fill="#8A6C0B" />
<rect x="29" y="80" width="1" height="1" fill="#8A6C0B" />
<rect x="30" y="80" width="1" height="1" fill="#8A6C0B" />
<rect x="31" y="80" width="1" height="1" fill="#8A6C0B" />
<rect x="32" y="80" width="1" height="1" fill="#8A6C0B" />
<rect x="33" y="80" width="1" height="1" fill="#8A6C0B" />
<rect x="34" y="80" width="1" height="1" fill="#8A6C0B" />
<rect x="35" y="80" width="1" height="1" fill="#8A6C0B" />
<rect x="36" y="80" width="1" height="1" fill="#8A6C0B" />
<rect x="37" y="80" width="1" height="1" fill="#8A6C0B" />
<rect x="38" y="80" width="1" height="1" fill="#8A6C0B" />
<rect x="39" y="80" width="1" height="1" fill="#8A6C0B" />
<rect x="40" y="80" width="1" height="1" fill="#8A6C0B" />
<rect x="41" y="80" width="1" height="1" fill="#8A6C0B" />
<rect x="42" y="80" width="1" height="1" fill="#8A6C0B" />
<rect x="43" y="80" width="1" height="1" fill="#8A6C0B" />
<rect x="44" y="80" width="1" height="1" fill="#8A6C0B" />
<rect x="45" y="80" width="1" height="1" fill="#8A6C0B" />
<rect x="46" y="80" width="1" height="1" fill="#8A6C0B" />
<rect x="47" y="80" width="1" height="1" fill="#8A6C0B" />
<rect x="48" y="80" width="1" height="1" fill="#8A6C0B" />
<rect x="49" y="80" width="1" height="1" fill="#8A6C0B" />
<rect x="50" y="80" width="1" height="1" fill="#8A6C0B" />
<rect x="51" y="80" width="1" height="1" fill="#8A6C0B" />
<rect x="52" y="80" width="1" height="1" fill="#8A6C0B" />
<rect x="53" y="80" width="1" height="1" fill="#8A6C0B" />
<rect x="54" y="80" width="1" height="1" fill="#8A6C0B" />
<rect x="55" y="80" width="1" height="1" fill="#8A6C0B" />
<rect x="24" y="81" width="1" height="1" fill="#8A6C0B" />
<rect x="25" y="81" width="1" height="1" fill="#8A6C0B" />
<rect x="26" y="81" width="1" height="1" fill="#8A6C0B" />
<rect x="27" y="81" width="1" height="1" fill="#8A6C0B" />
<rect x="28" y="81" width="1" height="1" fill="#8A6C0B" />
<rect x="29" y="81" width="1" height="1" fill="#8A6C0B" />
<rect x="30" y="81" width="1" height="1" fill="#8A6C0B" />
<rect x="31" y="81" width="1" height="1" fill="#8A6C0B" />
<rect x="32" y="81" width="1" height="1" fill="#8A6C0B" />
<rect x="33" y="81" width="1" height="1" fill="#8A6C0B" />
<rect x="34" y="81" width="1" height="1" fill="#8A6C0B" />
<rect x="35" y="81" width="1" height="1" fill="#8A6C0B" />
<rect x="36" y="81" width="1" height="1" fill="#8A6C0B" />
<rect x="37" y="81" width="1" height="1" fill="#8A6C0B" />
<rect x="38" y="81" width="1" height="1" fill="#8A6C0B" />
<rect x="39" y="81" width="1" height="1" fill="#8A6C0B" />
<rect x="40" y="81" width="1" height="1" fill="#8A6C0B" />
<rect x="41" y="81" width="1" height="1" fill="#8A6C0B" />
<rect x="42" y="81" width="1" height="1" fill="#8A6C0B" />
<rect x="43" y="81" width="1" height="1" fill="#8A6C0B" />
<rect x="44" y="81" width="1" height="1" fill="#8A6C0B" />
<rect x="45" y="81" width="1" height="1" fill="#8A6C0B" />
<rect x="46" y="81" width="1" height="1" fill="#8A6C0B" />
<rect x="47" y="81" width="1" height="1" fill="#8A6C0B" />
<rect x="48" y="81" width="1" height="1" fill="#8A6C0B" />
<rect x="49" y="81" width="1" height="1" fill="#8A6C0B" />
<rect x="50" y="81" width="1" height="1" fill="#8A6C0B" />
<rect x="51" y="81" width="1" height="1" fill="#8A6C0B" />
<rect x="52" y="81" width="1" height="1" fill="#8A6C0B" />
<rect x="53" y="81" width="1" height="1" fill="#8A6C0B" />
<rect x="54" y="81" width="1" height="1" fill="#8A6C0B" />
<rect x="55" y="81" width="1" height="1" fill="#8A6C0B" />
<rect x="56" y="81" width="1" height="1" fill="#8A6C0B" />
<rect x="57" y="81" width="1" height="1" fill="#8A6C0B" />
<rect x="22" y="82" width="1" height="1" fill="#8A6C0B" />
<rect x="23" y="82" width="1" height="1" fill="#8A6C0B" />
<rect x="24" y="82" width="1" height="1" fill="#8A6C0B" />
<rect x="25" y="82" width="1" height="1" fill="#8A6C0B" />
<rect x="26" y="82" width="1" height="1" fill="#8A6C0B" />
<rect x="27" y="82" width="1" height="1" fill="#8A6C0B" />
<rect x="28" y="82" width="1" height="1" fill="#8A6C0B" />
<rect x="29" y="82" width="1" height="1" fill="#8A6C0B" />
<rect x="30" y="82" width="1" height="1" fill="#8A6C0B" />
<rect x="31" y="82" width="1" height="1" fill="#8A6C0B" />
<rect x="32" y="82" width="1" height="1" fill="#8A6C0B" />
<rect x="33" y="82" width="1" height="1" fill="#8A6C0B" />
<rect x="34" y="82" width="1" height="1" fill="#8A6C0B" />
<rect x="35" y="82" width="1" height="1" fill="#8A6C0B" />
<rect x="36" y="82" width="1" height="1" fill="#8A6C0B" />
<rect x="37" y="82" width="1" height="1" fill="#8A6C0B" />
<rect x="38" y="82" width="1" height="1" fill="#8A6C0B" />
<rect x="39" y="82" width="1" height="1" fill="#8A6C0B" />
<rect x="40" y="82" width="1" height="1" fill="#8A6C0B" />
<rect x="41" y="82" width="1" height="1" fill="#8A6C0B" />
<rect x="42" y="82" width="1" height="1" fill="#8A6C0B" />
<rect x="43" y="82" width="1" height="1" fill="#8A6C0B" />
<rect x="44" y="82" width="1" height="1" fill="#8A6C0B" />
<rect x="45" y="82" width="1" height="1" fill="#8A6C0B" />
<rect x="46" y="82" width="1" height="1" fill="#8A6C0B" />
<rect x="47" y="82" width="1" height="1" fill="#8A6C0B" />
<rect x="48" y="82" width="1" height="1" fill="#8A6C0B" />
<rect x="49" y="82" width="1" height="1" fill="#8A6C0B" />
<rect x="50" y="82" width="1" height="1" fill="#8A6C0B" />
<rect x="51" y="82" width="1" height="1" fill="#8A6C0B" />
<rect x="52" y="82" width="1" height="1" fill="#8A6C0B" />
<rect x="53" y="82" width="1" height="1" fill="#8A6C0B" />
<rect x="54" y="82" width="1" height="1" fill="#8A6C0B" />
<rect x="55" y="82" width="1" height="1" fill="#8A6C0B" />
<rect x="56" y="82" width="1" height="1" fill="#8A6C0B" />
<rect x="57" y="82" width="1" height="1" fill="#8A6C0B" />
<rect x="58" y="82" width="1" height="1" fill="#8A6C0B" />
<rect x="21" y="83" width="1" height="1" fill="#8A6C0B" />
<rect x="22" y="83" width="1" height="1" fill="#8A6C0B" />
<rect x="23" y="83" width="1" height="1" fill="#8A6C0B" />
<rect x="24" y="83" width="1" height="1" fill="#8A6C0B" />
<rect x="25" y="83" width="1" height="1" fill="#8A6C0B" />
<rect x="26" y="83" width="1" height="1" fill="#8A6C0B" />
<rect x="27" y="83" width="1" height="1" fill="#8A6C0B" />
<rect x="28" y="83" width="1" height="1" fill="#8A6C0B" />
<rect x="29" y="83" width="1" height="1" fill="#8A6C0B" />
<rect x="30" y="83" width="1" height="1" fill="#8A6C0B" />
<rect x="31" y="83" width="1" height="1" fill="#8A6C0B" />
<rect x="32" y="83" width="1" height="1" fill="#8A6C0B" />
<rect x="33" y="83" width="1" height="1" fill="#8A6C0B" />
<rect x="34" y="83" width="1" height="1" fill="#8A6C0B" />
<rect x="35" y="83" width="1" height="1" fill="#8A6C0B" />
<rect x="36" y="83" width="1" height="1" fill="#8A6C0B" />
<rect x="37" y="83" width="1" height="1" fill="#8A6C0B" />
<rect x="38" y="83" width="1" height="1" fill="#8A6C0B" />
<rect x="39" y="83" width="1" height="1" fill="#8A6C0B" />
<rect x="40" y="83" width="1" height="1" fill="#8A6C0B" />
<rect x="41" y="83" width="1" height="1" fill="#8A6C0B" />
<rect x="42" y="83" width="1" height="1" fill="#8A6C0B" />
<rect x="43" y="83" width="1" height="1" fill="#8A6C0B" />
<rect x="44" y="83" width="1" height="1" fill="#8A6C0B" />
<rect x="45" y="83" width="1" height="1" fill="#8A6C0B" />
<rect x="46" y="83" width="1" height="1" fill="#8A6C0B" />
<rect x="47" y="83" width="1" height="1" fill="#8A6C0B" />
<rect x="48" y="83" width="1" height="1" fill="#8A6C0B" />
<rect x="49" y="83" width="1" height="1" fill="#8A6C0B" />
<rect x="50" y="83" width="1" height="1" fill="#8A6C0B" />
<rect x="51" y="83" width="1" height="1" fill="#8A6C0B" />
<rect x="52" y="83" width="1" height="1" fill="#8A6C0B" />
<rect x="53" y="83" width="1" height="1" fill="#8A6C0B" />
<rect x="54" y="83" width="1" height="1" fill="#8A6C0B" />
<rect x="55" y="83" width="1" height="1" fill="#8A6C0B" />
<rect x="56" y="83" width="1" height="1" fill="#8A6C0B" />
<rect x="57" y="83" width="1" height="1" fill="#8A6C0B" />
<rect x="58" y="83" width="1" height="1" fill="#8A6C0B" />
<rect x="59" y="83" width="1" height="1" fill="#8A6C0B" />
<rect x="19" y="84" width="1" height="1" fill="#8A6C0B" />
<rect x="20" y="84" width="1" height="1" fill="#8A6C0B" />
<rect x="21" y="84" width="1" height="1" fill="#8A6C0B" />
<rect x="22" y="84" width="1" height="1" fill="#8A6C0B" />
<rect x="23" y="84" width="1" height="1" fill="#8A6C0B" />
<rect x="24" y="84" width="1" height="1" fill="#8A6C0B" />
<rect x="25" y="84" width="1" height="1" fill="#8A6C0B" />
<rect x="26" y="84" width="1" height="1" fill="#8A6C0B" />
<rect x="27" y="84" width="1" height="1" fill="#8A6C0B" />
<rect x="28" y="84" width="1" height="1" fill="#8A6C0B" />
<rect x="29" y="84" width="1" height="1" fill="#8A6C0B" />
<rect x="30" y="84" width="1" height="1" fill="#8A6C0B" />
<rect x="31" y="84" width="1" height="1" fill="#8A6C0B" />
<rect x="32" y="84" width="1" height="1" fill="#8A6C0B" />
<rect x="33" y="84" width="1" height="1" fill="#8A6C0B" />
<rect x="34" y="84" width="1" height="1" fill="#8A6C0B" />
<rect x="35" y="84" width="1" height="1" fill="#8A6C0B" />
<rect x="36" y="84" width="1" height="1" fill="#8A6C0B" />
<rect x="37" y="84" width="1" height="1" fill="#8A6C0B" />
<rect x="38" y="84" width="1" height="1" fill="#8A6C0B" />
<rect x="39" y="84" width="1" height="1" fill="#8A6C0B" />
<rect x="40" y="84" width="1" height="1" fill="#8A6C0B" />
<rect x="41" y="84" width="1" height="1" fill="#8A6C0B" />
<rect x="42" y="84" width="1" height="1" fill="#8A6C0B" />
<rect x="43" y="84" width="1" height="1" fill="#8A6C0B" />
<rect x="44" y="84" width="1" height="1" fill="#8A6C0B" />
<rect x="45" y="84" width="1" height="1" fill="#8A6C0B" />
<rect x="46" y="84" width="1" height="1" fill="#8A6C0B" />
<rect x="47" y="84" width="1" height="1" fill="#8A6C0B" />
<rect x="48" y="84" width="1" height="1" fill="#8A6C0B" />
<rect x="49" y="84" width="1" height="1" fill="#8A6C0B" />
<rect x="50" y="84" width="1" height="1" fill="#8A6C0B" />
<rect x="51" y="84" width="1" height="1" fill="#8A6C0B" />
<rect x="52" y="84" width="1" height="1" fill="#8A6C0B" />
<rect x="53" y="84" width="1" height="1" fill="#8A6C0B" />
<rect x="54" y="84" width="1" height="1" fill="#8A6C0B" />
<rect x="55" y="84" width="1" height="1" fill="#8A6C0B" />
<rect x="56" y="84" width="1" height="1" fill="#8A6C0B" />
<rect x="57" y="84" width="1" height="1" fill="#8A6C0B" />
<rect x="58" y="84" width="1" height="1" fill="#8A6C0B" />
<rect x="59" y="84" width="1" height="1" fill="#8A6C0B" />
<rect x="60" y="84" width="1" height="1" fill="#8A6C0B" />
<rect x="18" y="85" width="1" height="1" fill="#8A6C0B" />
<rect x="19" y="85" width="1" height="1" fill="#8A6C0B" />
<rect x="20" y="85" width="1" height="1" fill="#8A6C0B" />
<rect x="21" y="85" width="1" height="1" fill="#8A6C0B" />
<rect x="22" y="85" width="1" height="1" fill="#8A6C0B" />
<rect x="23" y="85" width="1" height="1" fill="#8A6C0B" />
<rect x="24" y="85" width="1" height="1" fill="#8A6C0B" />
<rect x="25" y="85" width="1" height="1" fill="#8A6C0B" />
<rect x="26" y="85" width="1" height="1" fill="#8A6C0B" />
<rect x="27" y="85" width="1" height="1" fill="#8A6C0B" />
<rect x="28" y="85" width="1" height="1" fill="#8A6C0B" />
<rect x="29" y="85" width="1" height="1" fill="#8A6C0B" />
<rect x="30" y="85" width="1" height="1" fill="#8A6C0B" />
<rect x="31" y="85" width="1" height="1" fill="#8A6C0B" />
<rect x="32" y="85" width="1" height="1" fill="#8A6C0B" />
<rect x="33" y="85" width="1" height="1" fill="#8A6C0B" />
<rect x="34" y="85" width="1" height="1" fill="#8A6C0B" />
<rect x="35" y="85" width="1" height="1" fill="#8A6C0B" />
<rect x="36" y="85" width="1" height="1" fill="#8A6C0B" />
<rect x="37" y="85" width="1" height="1" fill="#8A6C0B" />
<rect x="38" y="85" width="1" height="1" fill="#8A6C0B" />
<rect x="39" y="85" width="1" height="1" fill="#8A6C0B" />
<rect x="40" y="85" width="1" height="1" fill="#8A6C0B" />
<rect x="41" y="85" width="1" height="1" fill="#8A6C0B" />
<rect x="42" y="85" width="1" height="1" fill="#8A6C0B" />
<rect x="43" y="85" width="1" height="1" fill="#8A6C0B" />
<rect x="44" y="85" width="1" height="1" fill="#8A6C0B" />
<rect x="45" y="85" width="1" height="1" fill="#8A6C0B" />
<rect x="46" y="85" width="1" height="1" fill="#8A6C0B" />
<rect x="47" y="85" width="1" height="1" fill="#8A6C0B" />
<rect x="48" y="85" width="1" height="1" fill="#8A6C0B" />
<rect x="49" y="85" width="1" height="1" fill="#8A6C0B" />
<rect x="50" y="85" width="1" height="1" fill="#8A6C0B" />
<rect x="51" y="85" width="1" height="1" fill="#8A6C0B" />
<rect x="52" y="85" width="1" height="1" fill="#8A6C0B" />
<rect x="53" y="85" width="1" height="1" fill="#8A6C0B" />
<rect x="54" y="85" width="1" height="1" fill="#8A6C0B" />
<rect x="55" y="85" width="1" height="1" fill="#8A6C0B" />
<rect x="56" y="85" width="1" height="1" fill="#8A6C0B" />
<rect x="57" y="85" width="1" height="1" fill="#8A6C0B" />
<rect x="58" y="85" width="1" height="1" fill="#8A6C0B" />
<rect x="59" y="85" width="1" height="1" fill="#8A6C0B" />
<rect x="60" y="85" width="1" height="1" fill="#8A6C0B" />
<rect x="18" y="86" width="1" height="1" fill="#8A6C0B" />
<rect x="19" y="86" width="1" height="1" fill="#8A6C0B" />
<rect x="20" y="86" width="1" height="1" fill="#8A6C0B" />
<rect x="21" y="86" width="1" height="1" fill="#8A6C0B" />
<rect x="22" y="86" width="1" height="1" fill="#8A6C0B" />
<rect x="23" y="86" width="1" height="1" fill="#8A6C0B" />
<rect x="24" y="86" width="1" height="1" fill="#8A6C0B" />
<rect x="25" y="86" width="1" height="1" fill="#8A6C0B" />
<rect x="26" y="86" width="1" height="1" fill="#8A6C0B" />
<rect x="27" y="86" width="1" height="1" fill="#8A6C0B" />
<rect x="28" y="86" width="1" height="1" fill="#8A6C0B" />
<rect x="29" y="86" width="1" height="1" fill="#8A6C0B" />
<rect x="30" y="86" width="1" height="1" fill="#8A6C0B" />
<rect x="31" y="86" width="1" height="1" fill="#8A6C0B" />
<rect x="32" y="86" width="1" height="1" fill="#8A6C0B" />
<rect x="33" y="86" width="1" height="1" fill="#8A6C0B" />
<rect x="34" y="86" width="1" height="1" fill="#8A6C0B" />
<rect x="35" y="86" width="1" height="1" fill="#8A6C0B" />
<rect x="36" y="86" width="1" height="1" fill="#8A6C0B" />
<rect x="37" y="86" width="1" height="1" fill="#8A6C0B" />
<rect x="38" y="86" width="1" height="1" fill="#8A6C0B" />
<rect x="39" y="86" width="1" height="1" fill="#8A6C0B" />
<rect x="40" y="86" width="1" height="1" fill="#8A6C0B" />
<rect x="41" y="86" width="1" height="1" fill="#8A6C0B" />
<rect x="42" y="86" width="1" height="1" fill="#8A6C0B" />
<rect x="43" y="86" width="1" height="1" fill="#8A6C0B" />
<rect x="44" y="86" width="1" height="1" fill="#8A6C0B" />
<rect x="45" y="86" width="1" height="1" fill="#8A6C0B" />
<rect x="46" y="86" width="1" height="1" fill="#8A6C0B" />
<rect x="47" y="86" width="1" height="1" fill="#8A6C0B" />
<rect x="48" y="86" width="1" height="1" fill="#8A6C0B" />
<rect x="49" y="86" width="1" height="1" fill="#8A6C0B" />
<rect x="50" y="86" width="1" height="1" fill="#8A6C0B" />
<rect x="51" y="86" width="1" height="1" fill="#8A6C0B" />
<rect x="52" y="86" width="1" height="1" fill="#8A6C0B" />
<rect x="53" y="86" width="1" height="1" fill="#8A6C0B" />
<rect x="54" y="86" width="1" height="1" fill="#8A6C0B" />
<rect x="55" y="86" width="1" height="1" fill="#8A6C0B" />
<rect x="56" y="86" width="1" height="1" fill="#8A6C0B" />
<rect x="57" y="86" width="1" height="1" fill="#8A6C0B" />
<rect x="58" y="86" width="1" height="1" fill="#8A6C0B" />
<rect x="59" y="86" width="1" height="1" fill="#8A6C0B" />
<rect x="60" y="86" width="1" height="1" fill="#8A6C0B" />
<rect x="18" y="87" width="1" height="1" fill="#8A6C0B" />
<rect x="19" y="87" width="1" height="1" fill="#8A6C0B" />
<rect x="20" y="87" width="1" height="1" fill="#8A6C0B" />
<rect x="21" y="87" width="1" height="1" fill="#8A6C0B" />
<rect x="22" y="87" width="1" height="1" fill="#8A6C0B" />
<rect x="23" y="87" width="1" height="1" fill="#8A6C0B" />
<rect x="24" y="87" width="1" height="1" fill="#8A6C0B" />
<rect x="25" y="87" width="1" height="1" fill="#8A6C0B" />
<rect x="26" y="87" width="1" height="1" fill="#8A6C0B" />
<rect x="27" y="87" width="1" height="1" fill="#8A6C0B" />
<rect x="28" y="87" width="1" height="1" fill="#8A6C0B" />
<rect x="29" y="87" width="1" height="1" fill="#8A6C0B" />
<rect x="30" y="87" width="1" height="1" fill="#8A6C0B" />
<rect x="31" y="87" width="1" height="1" fill="#8A6C0B" />
<rect x="32" y="87" width="1" height="1" fill="#8A6C0B" />
<rect x="33" y="87" width="1" height="1" fill="#8A6C0B" />
<rect x="34" y="87" width="1" height="1" fill="#8A6C0B" />
<rect x="35" y="87" width="1" height="1" fill="#8A6C0B" />
<rect x="36" y="87" width="1" height="1" fill="#8A6C0B" />
<rect x="37" y="87" width="1" height="1" fill="#8A6C0B" />
<rect x="38" y="87" width="1" height="1" fill="#8A6C0B" />
<rect x="39" y="87" width="1" height="1" fill="#8A6C0B" />
<rect x="40" y="87" width="1" height="1" fill="#8A6C0B" />
<rect x="41" y="87" width="1" height="1" fill="#8A6C0B" />
<rect x="42" y="87" width="1" height="1" fill="#8A6C0B" />
<rect x="43" y="87" width="1" height="1" fill="#8A6C0B" />
<rect x="44" y="87" width="1" height="1" fill="#8A6C0B" />
<rect x="45" y="87" width="1" height="1" fill="#8A6C0B" />
<rect x="46" y="87" width="1" height="1" fill="#8A6C0B" />
<rect x="47" y="87" width="1" height="1" fill="#8A6C0B" />
<rect x="48" y="87" width="1" height="1" fill="#8A6C0B" />
<rect x="49" y="87" width="1" height="1" fill="#8A6C0B" />
<rect x="50" y="87" width="1" height="1" fill="#8A6C0B" />
<rect x="51" y="87" width="1" height="1" fill="#8A6C0B" />
<rect x="52" y="87" width="1" height="1" fill="#8A6C0B" />
<rect x="53" y="87" width="1" height="1" fill="#8A6C0B" />
<rect x="54" y="87" width="1" height="1" fill="#8A6C0B" />
<rect x="55" y="87" width="1" height="1" fill="#8A6C0B" />
<rect x="56" y="87" width="1" height="1" fill="#8A6C0B" />
<rect x="57" y="87" width="1" height="1" fill="#8A6C0B" />
<rect x="58" y="87" width="1" height="1" fill="#8A6C0B" />
<rect x="59" y="87" width="1" height="1" fill="#8A6C0B" />
<rect x="19" y="88" width="1" height="1" fill="#8A6C0B" />
<rect x="20" y="88" width="1" height="1" fill="#8A6C0B" />
<rect x="21" y="88" width="1" height="1" fill="#8A6C0B" />
<rect x="22" y="88" width="1" height="1" fill="#8A6C0B" />
<rect x="23" y="88" width="1" height="1" fill="#8A6C0B" />
<rect x="24" y="88" width="1" height="1" fill="#8A6C0B" />
<rect x="25" y="88" width="1" height="1" fill="#8A6C0B" />
<rect x="26" y="88" width="1" height="1" fill="#8A6C0B" />
<rect x="27" y="88" width="1" height="1" fill="#8A6C0B" />
<rect x="28" y="88" width="1" height="1" fill="#8A6C0B" />
<rect x="29" y="88" width="1" height="1" fill="#8A6C0B" />
<rect x="30" y="88" width="1" height="1" fill="#8A6C0B" />
<rect x="31" y="88" width="1" height="1" fill="#8A6C0B" />
<rect x="32" y="88" width="1" height="1" fill="#8A6C0B" />
<rect x="33" y="88" width="1" height="1" fill="#8A6C0B" />
<rect x="34" y="88" width="1" height="1" fill="#8A6C0B" />
<rect x="35" y="88" width="1" height="1" fill="#8A6C0B" />
<rect x="36" y="88" width="1" height="1" fill="#8A6C0B" />
<rect x="37" y="88" width="1" height="1" fill="#8A6C0B" />
<rect x="38" y="88" width="1" height="1" fill="#8A6C0B" />
<rect x="39" y="88" width="1" height="1" fill="#8A6C0B" />
<rect x="40" y="88" width="1" height="1" fill="#8A6C0B" />
<rect x="41" y="88" width="1" height="1" fill="#8A6C0B" />
<rect x="42" y="88" width="1" height="1" fill="#8A6C0B" />
<rect x="43" y="88" width="1" height="1" fill="#8A6C0B" />
<rect x="44" y="88" width="1" height="1" fill="#8A6C0B" />
<rect x="45" y="88" width="1" height="1" fill="#8A6C0B" />
<rect x="46" y="88" width="1" height="1" fill="#8A6C0B" />
<rect x="47" y="88" width="1" height="1" fill="#8A6C0B" />
<rect x="48" y="88" width="1" height="1" fill="#8A6C0B" />
<rect x="49" y="88" width="1" height="1" fill="#8A6C0B" />
<rect x="50" y="88" width="1" height="1" fill="#8A6C0B" />
<rect x="51" y="88" width="1" height="1" fill="#8A6C0B" />
<rect x="52" y="88" width="1" height="1" fill="#8A6C0B" />
<rect x="53" y="88" width="1" height="1" fill="#8A6C0B" />
<rect x="54" y="88" width="1" height="1" fill="#8A6C0B" />
<rect x="55" y="88" width="1" height="1" fill="#8A6C0B" />
<rect x="56" y="88" width="1" height="1" fill="#8A6C0B" />
<rect x="22" y="89" width="1" height="1" fill="#8A6C0B" />
<rect x="23" y="89" width="1" height="1" fill="#8A6C0B" />
<rect x="24" y="89" width="1" height="1" fill="#8A6C0B" />
<rect x="25" y="89" width="1" height="1" fill="#8A6C0B" />
<rect x="26" y="89" width="1" height="1" fill="#8A6C0B" />
<rect x="27" y="89" width="1" height="1" fill="#8A6C0B" />
<rect x="28" y="89" width="1" height="1" fill="#8A6C0B" />
<rect x="29" y="89" width="1" height="1" fill="#8A6C0B" />
<rect x="30" y="89" width="1" height="1" fill="#8A6C0B" />
<rect x="31" y="89" width="1" height="1" fill="#8A6C0B" />
<rect x="32" y="89" width="1" height="1" fill="#8A6C0B" />
<rect x="33" y="89" width="1" height="1" fill="#8A6C0B" />
<rect x="34" y="89" width="1" height="1" fill="#8A6C0B" />
<rect x="35" y="89" width="1" height="1" fill="#8A6C0B" />
<rect x="36" y="89" width="1" height="1" fill="#8A6C0B" />
<rect x="37" y="89" width="1" height="1" fill="#8A6C0B" />
<rect x="38" y="89" width="1" height="1" fill="#8A6C0B" />
<rect x="39" y="89" width="1" height="1" fill="#8A6C0B" />
<rect x="40" y="89" width="1" height="1" fill="#8A6C0B" />
<rect x="41" y="89" width="1" height="1" fill="#8A6C0B" />
<rect x="42" y="89" width="1" height="1" fill="#8A6C0B" />
<rect x="43" y="89" width="1" height="1" fill="#8A6C0B" />
<rect x="44" y="89" width="1" height="1" fill="#8A6C0B" />
<rect x="45" y="89" width="1" height="1" fill="#8A6C0B" />
<rect x="46" y="89" width="1" height="1" fill="#8A6C0B" />
<rect x="47" y="89" width="1" height="1" fill="#8A6C0B" />
<rect x="48" y="89" width="1" height="1" fill="#8A6C0B" />
<rect x="49" y="89" width="1" height="1" fill="#8A6C0B" />
<rect x="50" y="89" width="1" height="1" fill="#8A6C0B" />
<rect x="51" y="89" width="1" height="1" fill="#8A6C0B" />
<rect x="52" y="89" width="1" height="1" fill="#8A6C0B" />
<rect x="53" y="89" width="1" height="1" fill="#8A6C0B" />
<rect x="27" y="90" width="1" height="1" fill="#8A6C0B" />
<rect x="28" y="90" width="1" height="1" fill="#8A6C0B" />
<rect x="29" y="90" width="1" height="1" fill="#8A6C0B" />
<rect x="30" y="90" width="1" height="1" fill="#8A6C0B" />
<rect x="31" y="90" width="1" height="1" fill="#8A6C0B" />
<rect x="32" y="90" width="1" height="1" fill="#8A6C0B" />
<rect x="33" y="90" width="1" height="1" fill="#8A6C0B" />
<rect x="34" y="90" width="1" height="1" fill="#8A6C0B" />
<rect x="35" y="90" width="1" height="1" fill="#8A6C0B" />
<rect x="36" y="90" width="1" height="1" fill="#8A6C0B" />
<rect x="37" y="90" width="1" height="1" fill="#8A6C0B" />
<rect x="38" y="90" width="1" height="1" fill="#8A6C0B" />
<rect x="39" y="90" width="1" height="1" fill="#8A6C0B" />
<rect x="40" y="90" width="1" height="1" fill="#8A6C0B" />
<rect x="41" y="90" width="1" height="1" fill="#8A6C0B" />
<rect x="42" y="90" width="1" height="1" fill="#8A6C0B" />
<rect x="43" y="90" width="1" height="1" fill="#8A6C0B" />
<rect x="44" y="90" width="1" height="1" fill="#8A6C0B" />
<rect x="45" y="90" width="1" height="1" fill="#8A6C0B" />
<rect x="46" y="90" width="1" height="1" fill="#8A6C0B" />
<rect x="47" y="90" width="1" height="1" fill="#8A6C0B" />
</svg>