<svg xmlns="http://www.w3.org/2000/svg" shape-rendering="crispEdges" viewBox="0 -0.5 100 100"><path stroke="#8a6c0b" d="M30 9h4m-5 1h6m-7 1h8m-8 1h8m-8 1h8m-8 1h8m-8 1h7m1 0h1m-10 1h8m1 0h2m-12 1h8m2 0h2m-12 1h6m3 0h3m-12 1h4m3 0h5m-13 1h14m-15 1h15m-16 1h16m-16 1h17m-17 1h11m1 0h5m-17 1h11m1 0h5m-16 1h9m1 0h6m-15 1h6m2 0h7m-15 1h3m3 0h8m-14 1h13m-13 1h13m-14 1h11m3 0h1m-16 1h9m4 0h4m-18 1h10m2 0h7m-20 1h21m-22 1h22m-22 1h22m-22 1h22m-23 1h22m-22 1h21m-21 1h21m-21 1h18m3 0h1m-22 1h15m5 0h2m-23 1h12m8 0h4m-26 1h17m4 0h6m-28 1h29m-30 1h13m1 0h17m-31 1h13m1 0h18m-32 1h12m2 0h18m-33 1h12m3 0h18m-34 1h12m3 0h20m-35 1h5m2 0h3m5 0h13m1 0h6m-35 1h6m8 0h13m1 0h8m-36 1h20m1 0h4m3 0h9m-37 1h21m6 0h10m-38 1h23m4 0h10m-38 1h36m-36 1h7m1 0h25m-33 1h6m4 0h17m-26 1h4m11 0h10m-7 1h5"/><path stroke="#5d400e" d="M35 15h1m-1 1h1m-2 1h2m-4 1h3m-5 1h3m1 5h1m-1 1h1m-2 1h1m-3 1h2m-5 1h3m4 3h3m-6 1h4m-4 1h2m3 8h3m-6 1h5m-9 1h8m-5 1h4m-10 2h1m-1 1h1m-2 1h2m-3 1h3m-4 1h3m-10 1h2m3 0h5m13 0h1m-23 1h8m13 0h1m-8 1h1m4 0h3m-7 1h6m10 0h1m-16 1h4m10 0h2m-4 1h5m-34 1h1m25 0h8m-35 1h4m17 0h14m-41 1h1m4 0h11m10 0h15m-40 1h18m5 0h17m-39 1h38m-33 1h32m-29 1h19m4 0h4m-26 1h6m1 0h10m-16 1h4m7 0h4"/><path stroke="#4c1517" d="M29 65h3m-3 1h3m-3 1h3m-4 1h4m-4 1h3m-3 1h3m-3 1h3m-3 1h3m-4 1h4m-4 1h3m-3 1h3m-3 1h3m-3 1h3m-3 1h3m-3 1h3m-3 1h3m-3 1h3m-3 1h3m-3 1h3m-3 1h3m-3 1h3m-3 1h3"/></svg>